{"title":"Fifty Shades of Grey (2015) CAM ENG x264 AC3-CPG","uid":11710512,"size":892322327,"categoryP":"video","categoryS":"movies","magnet":"?xt=urn:btih:7ffb6251ef01341802792a266bf2cf3154d8df91&amp;dn=Fifty+Shades+of+Grey+%282015%29+CAM+ENG+x264+AC3-CPG&amp;tr=udp%3A%2F%2Ftracker.openbittorrent.com%3A80&amp;tr=udp%3A%2F%2Fopen.demonii.com%3A1337&amp;tr=udp%3A%2F%2Ftracker.coppersurfer.tk%3A6969&amp;tr=udp%3A%2F%2Fexodus.desync.com%3A6969","seeders":33,"leechers":4,"uploader":".BONE.","files":5,"time":1424320310,"description":"Fifty Shades of Grey (2015) CAM ENG x264 AC3-CPG\n\nGeneral\nComplete name : Fifty Shades of Grey (2015) CAM ENG x264 AC3-CPG/Fifty Shades of Grey (2015) CAM ENG x264 AC3-CPG.mp4\nFormat : MPEG-4\nFormat profile : Base Media\nCodec ID : isom\nFile size : 827 MiB\nDuration : 1h 47mn\nOverall bit rate : 1 079 Kbps\nEncoded date : UTC 2015-02-17 15:55:52\nTagged date : UTC 2015-02-17 15:55:52\n\nVideo\nID : 1\nFormat : AVC\nFormat/Info : Advanced Video Codec\nFormat profile : &lt;a class=&quot;__cf_email__&quot; href=&quot;/cdn-cgi/l/email-protection&quot; data-cfemail=&quot;064e6f616e464a332834&quot;&gt;[email&amp;#160;protected]&lt;/a&gt;&lt;script cf-hash='f9e31' type=&quot;text/javascript&quot;&gt;\n/* &lt;![CDATA[ */!function(){try{var t=&quot;currentScript&quot;in document?document.currentScript:function(){for(var t=document.getElementsByTagName(&quot;script&quot;),e=t.length;e--;)if(t[e].getAttribute(&quot;cf-hash&quot;))return t[e]}();if(t&amp;&amp;t.previousSibling){var e,r,n,i,c=t.previousSibling,a=c.getAttribute(&quot;data-cfemail&quot;);if(a){for(e=&quot;&quot;,r=parseInt(a.substr(0,2),16),n=2;a.length-n;n+=2)i=parseInt(a.substr(n,2),16)^r,e+=String.fromCharCode(i);e=document.createTextNode(e),c.parentNode.replaceChild(e,c)}}}catch(u){}}();/* ]]&gt; */&lt;/script&gt;\nFormat settings, CABAC : Yes\nFormat settings, ReFrames : 4 frames\nCodec ID : avc1\nCodec ID/Info : Advanced Video Coding\nDuration : 1h 47mn\nBit rate : 883 Kbps\nMaximum bit rate : 3 220 Kbps\nWidth : 720 pixels\nHeight : 368 pixels\nDisplay aspect ratio : 1.957\nFrame rate mode : Constant\nFrame rate : 29.970 fps\nColor space : YUV\nChroma subsampling : 4:2:0\nBit depth : 8 bits\nScan type : Progressive\nBits/(Pixel*Frame) : 0.111\nStream size : 677 MiB (82%)\nWriting library : x264 core 144 r2525 40bb568\nEncoded date : UTC 2015-02-17 12:46:44\nTagged date : UTC 2015-02-17 15:56:27\n\nAudio\nID : 2\nFormat : AC-3\nFormat/Info : Audio Coding 3\nMode extension : CM (complete main)\nFormat settings, Endianness : Big\nCodec ID : ac-3\nDuration : 1h 47mn\nBit rate mode : Constant\nBit rate : 192 Kbps\nChannel(s) : 2 channels\nChannel positions : Front: L R\nSampling rate : 44.1 KHz\nBit depth : 16 bits\nCompression mode : Lossy\nStream size : 147 MiB (18%)\nLanguage : English\nEncoded date : UTC 2015-02-17 15:56:21\nTagged date : UTC 2015-02-17 15:56:27\n &lt;a href=&quot;\nhttp://lookpic.com/O/i2/1185/oipACEda.jpeg&quot; rel=&quot;nofollow&quot; target=&quot;_NEW&quot;&gt;\nhttp://lookpic.com/O/i2/1185/oipACEda.jpeg&lt;/a&gt; &lt;a href=&quot;\nhttp://lookpic.com/O/i2/759/I0lxTHQ9.jpeg&quot; rel=&quot;nofollow&quot; target=&quot;_NEW&quot;&gt;\nhttp://lookpic.com/O/i2/759/I0lxTHQ9.jpeg&lt;/a&gt; &lt;a href=&quot;\nhttp://lookpic.com/O/i2/397/h6bFYv8.jpeg&quot; rel=&quot;nofollow&quot; target=&quot;_NEW&quot;&gt;\nhttp://lookpic.com/O/i2/397/h6bFYv8.jpeg&lt;/a&gt;","torrent":{"xt":"urn:btih:7ffb6251ef01341802792a266bf2cf3154d8df91","amp;dn":"Fifty+Shades+of+Grey+%282015%29+CAM+ENG+x264+AC3-CPG","amp;tr":["udp%3A%2F%2Ftracker.openbittorrent.com%3A80","udp%3A%2F%2Fopen.demonii.com%3A1337","udp%3A%2F%2Ftracker.coppersurfer.tk%3A6969","udp%3A%2F%2Fexodus.desync.com%3A6969"],"infoHash":"7ffb6251ef01341802792a266bf2cf3154d8df91","infoHashBuffer":{"type":"Buffer","data":[127,251,98,81,239,1,52,24,2,121,42,38,107,242,207,49,84,216,223,145]},"announce":[],"urlList":[]}}